<svg xmlns="http://www.w3.org/2000/svg" width="1959.372" height="1959.372" viewBox="0 0 1959.372 1959.372">
  <g id="Graphic-main-02" transform="matrix(0.996, -0.087, 0.087, 0.996, -26.683, 142.349)" opacity="0.25">
    <circle id="Ellipse_17" data-name="Ellipse 17" cx="903.561" cy="903.561" r="903.561" transform="translate(26 18.3)" fill="none" stroke="#a5a7af" stroke-width="1.5" opacity="0"/>
    <circle id="Ellipse_18" data-name="Ellipse 18" cx="888.842" cy="888.842" r="888.842" transform="translate(45.933 21.244)" fill="none" stroke="#a5a7af" stroke-width="1.5" opacity="0.042"/>
    <circle id="Ellipse_19" data-name="Ellipse 19" cx="874.124" cy="874.124" r="874.124" transform="translate(65.951 24.187)" fill="none" stroke="#a5a7af" stroke-width="1.5" opacity="0.083"/>
    <circle id="Ellipse_20" data-name="Ellipse 20" cx="859.405" cy="859.405" r="859.405" transform="translate(85.884 27.047)" fill="none" stroke="#a5a7af" stroke-width="1.5" opacity="0.125"/>
    <circle id="Ellipse_21" data-name="Ellipse 21" cx="844.686" cy="844.686" r="844.686" transform="translate(105.902 29.991)" fill="none" stroke="#a5a7af" stroke-width="1.5" opacity="0.167"/>
    <circle id="Ellipse_22" data-name="Ellipse 22" cx="830.052" cy="830.052" r="830.052" transform="translate(125.835 32.766)" fill="none" stroke="#a5a7af" stroke-width="1.5" opacity="0.208"/>
    <circle id="Ellipse_23" data-name="Ellipse 23" cx="815.333" cy="815.333" r="815.333" transform="translate(145.768 35.71)" fill="none" stroke="#a5a7af" stroke-width="1.5" opacity="0.25"/>
    <circle id="Ellipse_24" data-name="Ellipse 24" cx="800.614" cy="800.614" r="800.614" transform="translate(165.786 38.654)" fill="none" stroke="#a5a7af" stroke-width="1.5" opacity="0.292"/>
    <circle id="Ellipse_25" data-name="Ellipse 25" cx="785.895" cy="785.895" r="785.895" transform="translate(185.719 41.513)" fill="none" stroke="#a5a7af" stroke-width="1.5" opacity="0.333"/>
    <circle id="Ellipse_26" data-name="Ellipse 26" cx="771.177" cy="771.177" r="771.177" transform="translate(205.737 44.457)" fill="none" stroke="#a5a7af" stroke-width="1.5" opacity="0.375"/>
    <circle id="Ellipse_27" data-name="Ellipse 27" cx="756.458" cy="756.458" r="756.458" transform="translate(225.754 47.317)" fill="none" stroke="#a5a7af" stroke-width="1.5" opacity="0.417"/>
    <circle id="Ellipse_28" data-name="Ellipse 28" cx="741.739" cy="741.739" r="741.739" transform="translate(245.687 50.261)" fill="none" stroke="#a5a7af" stroke-width="1.5" opacity="0.458"/>
    <circle id="Ellipse_29" data-name="Ellipse 29" cx="727.021" cy="727.021" r="727.021" transform="translate(265.705 53.204)" fill="none" stroke="#a5a7af" stroke-width="1.5" opacity="0.5"/>
    <circle id="Ellipse_30" data-name="Ellipse 30" cx="712.302" cy="712.302" r="712.302" transform="translate(285.722 56.064)" fill="none" stroke="#a5a7af" stroke-width="1.5" opacity="0.542"/>
    <circle id="Ellipse_31" data-name="Ellipse 31" cx="697.583" cy="697.583" r="697.583" transform="translate(305.656 59.008)" fill="none" stroke="#a5a7af" stroke-width="1.5" opacity="0.583"/>
    <circle id="Ellipse_32" data-name="Ellipse 32" cx="682.864" cy="682.864" r="682.864" transform="translate(325.673 61.867)" fill="none" stroke="#a5a7af" stroke-width="1.5" opacity="0.625"/>
    <circle id="Ellipse_33" data-name="Ellipse 33" cx="668.146" cy="668.146" r="668.146" transform="translate(345.606 64.811)" fill="none" stroke="#a5a7af" stroke-width="1.5" opacity="0.667"/>
    <circle id="Ellipse_34" data-name="Ellipse 34" cx="653.427" cy="653.427" r="653.427" transform="translate(365.624 67.755)" fill="none" stroke="#a5a7af" stroke-width="1.5" opacity="0.708"/>
    <circle id="Ellipse_35" data-name="Ellipse 35" cx="638.708" cy="638.708" r="638.708" transform="translate(385.641 70.614)" fill="none" stroke="#a5a7af" stroke-width="1.5" opacity="0.75"/>
    <circle id="Ellipse_36" data-name="Ellipse 36" cx="624.074" cy="624.074" r="624.074" transform="translate(405.491 73.474)" fill="none" stroke="#a5a7af" stroke-width="1.5" opacity="0.792"/>
    <circle id="Ellipse_37" data-name="Ellipse 37" cx="609.23" cy="609.23" r="609.23" transform="translate(425.655 76.688)" fill="none" stroke="#a5a7af" stroke-width="1.5" opacity="0.833"/>
    <circle id="Ellipse_38" data-name="Ellipse 38" cx="594.636" cy="594.636" r="594.636" transform="translate(445.526 79.278)" fill="none" stroke="#a5a7af" stroke-width="1.5" opacity="0.875"/>
    <circle id="Ellipse_39" data-name="Ellipse 39" cx="579.917" cy="579.917" r="579.917" transform="translate(465.459 82.221)" fill="none" stroke="#a5a7af" stroke-width="1.5" opacity="0.917"/>
    <circle id="Ellipse_40" data-name="Ellipse 40" cx="565.199" cy="565.199" r="565.199" transform="translate(485.476 85.081)" fill="none" stroke="#a5a7af" stroke-width="1.5" opacity="0.958"/>
    <circle id="Ellipse_41" data-name="Ellipse 41" cx="550.48" cy="550.48" r="550.48" transform="translate(505.41 88.025)" fill="none" stroke="#a5a7af" stroke-width="1.5"/>
    <circle id="Ellipse_42" data-name="Ellipse 42" cx="538.957" cy="538.957" r="538.957" transform="translate(522.483 109.556)" fill="none" stroke="#a5a7af" stroke-width="1.5"/>
    <circle id="Ellipse_43" data-name="Ellipse 43" cx="527.519" cy="527.519" r="527.519" transform="translate(539.389 131.087)" fill="none" stroke="#a5a7af" stroke-width="1.5"/>
    <circle id="Ellipse_44" data-name="Ellipse 44" cx="515.996" cy="515.996" r="515.996" transform="translate(556.378 152.619)" fill="none" stroke="#a5a7af" stroke-width="1.5"/>
    <circle id="Ellipse_45" data-name="Ellipse 45" cx="504.558" cy="504.558" r="504.558" transform="translate(573.284 174.15)" fill="none" stroke="#a5a7af" stroke-width="1.5"/>
    <circle id="Ellipse_46" data-name="Ellipse 46" cx="493.035" cy="493.035" r="493.035" transform="translate(590.358 195.766)" fill="none" stroke="#a5a7af" stroke-width="1.5"/>
    <circle id="Ellipse_47" data-name="Ellipse 47" cx="481.596" cy="481.596" r="481.596" transform="translate(607.263 217.213)" fill="none" stroke="#a5a7af" stroke-width="1.5"/>
    <circle id="Ellipse_48" data-name="Ellipse 48" cx="470.074" cy="470.074" r="470.074" transform="translate(624.253 238.828)" fill="none" stroke="#a5a7af" stroke-width="1.5"/>
    <circle id="Ellipse_49" data-name="Ellipse 49" cx="458.635" cy="458.635" r="458.635" transform="translate(641.158 260.276)" fill="none" stroke="#a5a7af" stroke-width="1.5"/>
    <circle id="Ellipse_50" data-name="Ellipse 50" cx="447.113" cy="447.113" r="447.113" transform="translate(658.232 281.891)" fill="none" stroke="#a5a7af" stroke-width="1.5"/>
    <circle id="Ellipse_51" data-name="Ellipse 51" cx="435.674" cy="435.674" r="435.674" transform="translate(675.138 303.423)" fill="none" stroke="#a5a7af" stroke-width="1.5"/>
    <circle id="Ellipse_52" data-name="Ellipse 52" cx="424.151" cy="424.151" r="424.151" transform="translate(692.127 324.954)" fill="none" stroke="#a5a7af" stroke-width="1.5"/>
    <circle id="Ellipse_53" data-name="Ellipse 53" cx="412.713" cy="412.713" r="412.713" transform="translate(709.033 346.485)" fill="none" stroke="#a5a7af" stroke-width="1.5"/>
    <circle id="Ellipse_54" data-name="Ellipse 54" cx="401.19" cy="401.19" r="401.19" transform="translate(726.022 368.017)" fill="none" stroke="#a5a7af" stroke-width="1.5"/>
    <circle id="Ellipse_55" data-name="Ellipse 55" cx="389.752" cy="389.752" r="389.752" transform="translate(743.012 389.548)" fill="none" stroke="#a5a7af" stroke-width="1.5"/>
    <circle id="Ellipse_56" data-name="Ellipse 56" cx="378.229" cy="378.229" r="378.229" transform="translate(760.001 411.079)" fill="none" stroke="#a5a7af" stroke-width="1.5"/>
    <circle id="Ellipse_57" data-name="Ellipse 57" cx="366.79" cy="366.79" r="366.79" transform="translate(776.907 432.611)" fill="none" stroke="#a5a7af" stroke-width="1.5"/>
    <circle id="Ellipse_58" data-name="Ellipse 58" cx="355.268" cy="355.268" r="355.268" transform="translate(793.897 454.226)" fill="none" stroke="#a5a7af" stroke-width="1.5"/>
    <circle id="Ellipse_59" data-name="Ellipse 59" cx="343.745" cy="343.745" r="343.745" transform="translate(810.97 475.758)" fill="none" stroke="#a5a7af" stroke-width="1.5"/>
    <circle id="Ellipse_60" data-name="Ellipse 60" cx="332.307" cy="332.307" r="332.307" transform="translate(827.876 497.289)" fill="none" stroke="#a5a7af" stroke-width="1.5"/>
    <circle id="Ellipse_61" data-name="Ellipse 61" cx="320.784" cy="320.784" r="320.784" transform="translate(844.865 518.82)" fill="none" stroke="#a5a7af" stroke-width="1.5"/>
    <circle id="Ellipse_62" data-name="Ellipse 62" cx="309.345" cy="309.345" r="309.345" transform="translate(861.771 540.352)" fill="none" stroke="#a5a7af" stroke-width="1.5"/>
    <circle id="Ellipse_63" data-name="Ellipse 63" cx="297.823" cy="297.823" r="297.823" transform="translate(878.844 561.967)" fill="none" stroke="#a5a7af" stroke-width="1.5"/>
    <circle id="Ellipse_64" data-name="Ellipse 64" cx="286.384" cy="286.384" r="286.384" transform="translate(895.75 583.415)" fill="none" stroke="#a5a7af" stroke-width="1.5"/>
    <circle id="Ellipse_65" data-name="Ellipse 65" cx="274.862" cy="274.862" r="274.862" transform="translate(912.74 605.03)" fill="none" stroke="#a5a7af" stroke-width="1.5"/>
  </g>
</svg>
